<?xml version="1.0" standalone="no"?>
<!DOCTYPE svg PUBLIC "-//W3C//DTD SVG 20010904//EN"
 "http://www.w3.org/TR/2001/REC-SVG-20010904/DTD/svg10.dtd">
<svg version="1.0" xmlns="http://www.w3.org/2000/svg"
 width="800.000000pt" height="800.000000pt" viewBox="0 0 800.000000 800.000000"
 preserveAspectRatio="xMidYMid meet">
<metadata>
Created by potrace 1.11, written by Peter Selinger 2001-2013
</metadata>
<g transform="translate(0.000000,800.000000) scale(0.100000,-0.100000)"
fill="#000000" stroke="none">
<path d="M0 4000 l0 -4000 4000 0 4000 0 0 4000 0 4000 -4000 0 -4000 0 0
-4000z m3641 2406 c184 -30 363 -103 474 -193 208 -170 295 -418 266 -760 -14
-159 -30 -246 -73 -393 -99 -335 -280 -631 -648 -1055 -502 -578 -1003 -1004
-1270 -1078 -92 -25 -133 -30 -124 -15 38 64 183 199 324 302 195 143 651 578
876 837 283 325 401 487 526 719 186 347 278 772 223 1035 -63 302 -343 475
-767 475 -246 0 -437 -62 -673 -217 -331 -218 -605 -661 -605 -978 0 -48 6
-100 15 -125 8 -23 15 -47 15 -53 0 -20 -52 49 -78 103 -24 49 -27 66 -27 165
1 127 22 218 91 382 104 249 324 498 584 659 253 158 602 234 871 190z m-644
-468 c73 -80 151 -345 205 -696 18 -116 22 -184 22 -442 1 -325 -6 -394 -65
-625 -24 -97 -41 -125 -74 -125 -43 0 -47 26 -23 172 20 118 23 167 22 443 -1
520 -41 822 -149 1121 -37 103 -41 124 -25 155 15 26 61 25 87 -3z m1817
-1022 c47 -20 66 -51 66 -112 0 -54 -14 -75 -57 -88 -20 -6 -23 -4 -23 18 0
40 -17 73 -40 79 -32 8 -163 -62 -260 -141 -183 -148 -355 -394 -362 -517 l-3
-50 49 -9 c109 -21 305 49 467 168 69 50 76 59 93 113 36 114 109 199 211 244
25 11 60 19 78 17 31 -3 32 -4 32 -53 -1 -74 -43 -153 -131 -243 -86 -87 -93
-110 -75 -220 11 -64 10 -76 -3 -98 -19 -27 -60 -32 -91 -10 -11 8 -31 36 -44
62 -13 27 -25 50 -26 52 -1 1 -29 -14 -61 -33 -150 -92 -292 -144 -406 -152
-70 -5 -82 -3 -133 22 -130 63 -141 171 -40 377 105 212 423 521 590 571 64
20 127 21 169 3z m1701 -73 c95 -35 136 -129 110 -250 -28 -134 -49 -181 -82
-189 -60 -15 -72 15 -44 111 26 92 27 155 2 186 -14 18 -31 23 -80 27 -56 4
-69 1 -136 -32 -90 -44 -189 -145 -253 -259 -63 -110 -63 -110 2 -130 110 -35
186 -122 186 -214 0 -23 -4 -43 -10 -43 -5 0 -37 20 -70 44 -158 116 -349 117
-565 2 -227 -121 -447 -357 -532 -571 -70 -177 -82 -360 -30 -461 30 -59 85
-111 145 -138 53 -24 62 -15 62 57 0 61 24 219 49 322 11 44 17 82 15 84 -6 6
-112 -28 -158 -51 -47 -24 -68 -12 -43 26 21 31 150 96 192 96 32 0 33 1 72
108 22 59 43 114 47 123 6 15 2 16 -36 9 -52 -10 -72 -18 -168 -64 l-75 -36
43 40 c55 50 135 94 216 121 62 20 64 22 92 80 30 65 54 93 54 65 0 -8 -10
-36 -22 -61 -12 -24 -20 -47 -17 -49 2 -3 47 -1 99 4 52 5 131 10 175 10 l80
0 33 65 c48 92 120 202 137 209 8 3 17 1 21 -5 10 -17 -5 -58 -62 -171 l-54
-107 43 -12 c90 -24 134 -42 193 -80 85 -55 128 -119 79 -119 -7 0 -42 19 -77
42 -82 54 -183 97 -230 98 -46 0 -50 -7 -115 -232 l-45 -156 74 -70 c41 -39
92 -95 113 -126 22 -30 44 -55 49 -56 18 0 119 85 189 161 124 133 192 291
204 474 6 100 15 125 43 125 39 0 49 -12 61 -71 l12 -60 31 7 c51 10 174 64
224 98 62 41 64 59 10 81 -63 26 -152 30 -224 11 -110 -29 -171 -17 -162 31 5
27 103 71 186 84 126 19 243 -11 301 -76 38 -44 42 -98 9 -140 -48 -61 -174
-126 -317 -163 l-65 -17 -12 -65 c-36 -184 -109 -319 -259 -478 -104 -110
-212 -197 -315 -254 l-60 -33 6 -45 c8 -53 30 -111 47 -122 33 -21 63 -7 129
62 48 50 79 94 107 153 45 95 70 122 101 112 31 -10 39 -42 25 -100 -33 -134
-124 -262 -235 -330 -70 -42 -102 -51 -141 -35 -56 24 -119 145 -119 231 0 31
-3 40 -14 36 -193 -74 -431 -83 -614 -21 -95 31 -145 60 -199 115 -41 40 -103
147 -103 176 0 22 -92 -30 -134 -77 -48 -53 -86 -134 -86 -182 0 -71 77 -85
218 -43 84 26 132 16 132 -27 0 -43 -155 -108 -261 -108 -148 0 -229 80 -201
201 26 112 158 260 264 295 l49 16 -7 81 c-23 297 169 669 469 905 55 43 56
46 37 59 -62 44 -85 196 -42 279 55 107 147 130 265 66 50 -27 141 -118 160
-160 9 -20 16 -23 40 -18 16 3 51 6 77 6 l47 0 18 68 c23 85 43 126 118 236
37 54 83 106 117 133 116 91 271 121 395 76z m-3844 -909 c93 -28 186 -141
132 -161 -9 -3 -28 1 -42 10 -109 69 -221 63 -432 -23 -413 -168 -837 -638
-1068 -1181 -82 -195 -118 -422 -92 -579 22 -134 96 -235 208 -286 106 -48
168 -59 333 -58 135 1 175 5 308 33 437 92 1004 325 1540 634 202 117 506 340
647 476 97 93 136 117 164 101 27 -14 35 -45 19 -77 -17 -35 -219 -218 -371
-336 -343 -266 -707 -473 -1227 -699 -658 -285 -1211 -362 -1515 -211 -100 50
-171 120 -214 208 -44 94 -65 201 -65 340 0 221 58 433 191 698 30 61 63 122
72 136 10 14 44 67 76 116 229 354 584 667 903 796 180 73 328 94 433 63z
m1827 -159 c78 -23 157 -101 179 -174 28 -97 -3 -216 -82 -310 -36 -42 -146
-113 -234 -150 -81 -34 -121 -40 -121 -16 0 20 20 38 119 110 151 109 217 203
209 299 -6 78 -45 121 -130 146 -98 29 -250 -109 -298 -269 -26 -88 -62 -260
-96 -459 -30 -175 -45 -212 -89 -212 -15 0 -31 10 -40 24 -14 21 -14 38 -6
124 6 56 15 123 21 149 81 364 144 525 254 641 94 100 197 131 314 97z m-932
-334 c40 -25 55 -65 40 -111 -14 -44 -27 -47 -48 -10 -28 49 -52 40 -149 -60
-71 -72 -96 -107 -134 -182 -55 -113 -95 -264 -95 -362 0 -134 15 -145 124
-93 128 61 315 261 316 337 0 55 26 164 50 211 51 101 121 138 156 84 24 -37
13 -109 -32 -208 -50 -112 -54 -164 -15 -241 36 -71 31 -99 -18 -104 -26 -3
-39 4 -72 37 l-41 40 -86 -90 c-139 -146 -243 -208 -351 -209 -58 0 -66 3 -96
33 -50 50 -60 101 -47 225 14 126 55 254 124 382 111 207 235 338 323 340 11
0 34 -9 51 -19z"/>
<path d="M5386 4405 c-37 -40 -51 -106 -37 -170 7 -30 17 -57 22 -61 5 -3 31
8 57 24 26 17 79 44 117 62 39 18 72 34 74 36 7 6 -38 52 -92 95 -60 48 -106
52 -141 14z"/>
<path d="M5510 3729 c-30 -5 -57 -13 -61 -17 -7 -8 -79 -220 -79 -234 0 -4 15
-8 33 -8 47 0 177 -34 227 -60 41 -21 60 -20 60 5 0 19 78 253 96 287 8 15 14
29 14 33 0 8 -229 4 -290 -6z"/>
<path d="M5342 3357 c-24 -94 -52 -273 -58 -373 l-7 -107 119 5 c65 3 143 11
172 18 l52 12 0 51 c0 45 13 149 36 304 6 40 5 42 -32 61 -49 25 -165 59 -225
66 l-47 5 -10 -42z"/>
<path d="M5740 3258 c0 -2 -14 -72 -30 -157 -17 -85 -30 -158 -30 -162 0 -4
10 -5 23 -2 30 8 217 97 241 115 18 15 18 16 -12 60 -17 25 -47 59 -67 76 -41
36 -125 83 -125 70z"/>
</g>
</svg>
